<svg aria-hidden="true" style="position: absolute; width: 0; height: 0; overflow: hidden;" version="1.1" xmlns="http://www.w3.org/2000/svg" xmlns:xlink="http://www.w3.org/1999/xlink">
<defs>
<symbol id="icon-Vector" viewBox="0 0 32 32">
<path d="M32 3.223l-3.223-3.223-12.777 12.777-12.777-12.777-3.223 3.223 12.777 12.777-12.777 12.777 3.223 3.223 12.777-12.777 12.777 12.777 3.223-3.223-12.777-12.777 12.777-12.777z"></path>
</symbol>
<symbol id="icon-wikipedia" viewBox="0 0 32 32">
<path d="M30.212 7.3c0 0.1-0.031 0.194-0.094 0.281-0.063 0.081-0.131 0.125-0.212 0.125-0.625 0.063-1.137 0.263-1.531 0.6-0.4 0.338-0.806 0.994-1.225 1.95l-6.45 14.544c-0.044 0.137-0.163 0.2-0.356 0.2-0.15 0-0.269-0.069-0.356-0.2l-3.619-7.563-4.162 7.563c-0.088 0.137-0.2 0.2-0.356 0.2-0.188 0-0.306-0.069-0.369-0.2l-6.331-14.537c-0.394-0.9-0.813-1.531-1.25-1.887s-1.050-0.581-1.831-0.662c-0.069 0-0.131-0.037-0.188-0.106-0.063-0.069-0.087-0.15-0.087-0.244 0-0.237 0.069-0.356 0.2-0.356 0.562 0 1.156 0.025 1.775 0.075 0.575 0.050 1.112 0.075 1.619 0.075 0.513 0 1.125-0.025 1.825-0.075 0.731-0.050 1.381-0.075 1.95-0.075 0.137 0 0.2 0.119 0.2 0.356s-0.044 0.35-0.125 0.35c-0.563 0.044-1.012 0.188-1.338 0.431s-0.487 0.563-0.487 0.963c0 0.2 0.069 0.456 0.2 0.756l5.231 11.825 2.975-5.613-2.769-5.806c-0.5-1.037-0.906-1.706-1.225-2.006s-0.806-0.481-1.456-0.55c-0.063 0-0.113-0.037-0.169-0.106s-0.081-0.15-0.081-0.244c0-0.237 0.056-0.356 0.175-0.356 0.563 0 1.081 0.025 1.556 0.075 0.456 0.050 0.938 0.075 1.456 0.075 0.506 0 1.037-0.025 1.606-0.075 0.581-0.050 1.156-0.075 1.719-0.075 0.137 0 0.2 0.119 0.2 0.356s-0.038 0.35-0.125 0.35c-1.131 0.075-1.694 0.4-1.694 0.963 0 0.25 0.131 0.644 0.394 1.175l1.831 3.719 1.825-3.4c0.25-0.481 0.381-0.887 0.381-1.213 0-0.775-0.563-1.188-1.694-1.237-0.1 0-0.15-0.119-0.15-0.35 0-0.088 0.025-0.162 0.075-0.237s0.1-0.112 0.15-0.112c0.406 0 0.9 0.025 1.494 0.075 0.563 0.050 1.031 0.075 1.394 0.075 0.262 0 0.644-0.025 1.15-0.063 0.637-0.056 1.175-0.088 1.606-0.088 0.1 0 0.15 0.1 0.15 0.3 0 0.269-0.094 0.406-0.275 0.406-0.656 0.069-1.188 0.25-1.587 0.544s-0.9 0.963-1.5 2.013l-2.444 4.475 3.288 6.7 4.856-11.294c0.169-0.412 0.25-0.794 0.25-1.137 0-0.825-0.563-1.263-1.694-1.319-0.1 0-0.15-0.119-0.15-0.35 0-0.237 0.075-0.356 0.225-0.356 0.413 0 0.9 0.025 1.469 0.075 0.525 0.050 0.962 0.075 1.313 0.075 0.375 0 0.8-0.025 1.288-0.075 0.506-0.050 0.962-0.075 1.369-0.075 0.125 0 0.188 0.1 0.188 0.3z"></path>
</symbol>
<symbol id="icon-linkedin" viewBox="0 0 32 32">
<path d="M29 0h-26c-1.65 0-3 1.35-3 3v26c0 1.65 1.35 3 3 3h26c1.65 0 3-1.35 3-3v-26c0-1.65-1.35-3-3-3zM12 26h-4v-14h4v14zM10 10c-1.106 0-2-0.894-2-2s0.894-2 2-2c1.106 0 2 0.894 2 2s-0.894 2-2 2zM26 26h-4v-8c0-1.106-0.894-2-2-2s-2 0.894-2 2v8h-4v-14h4v2.481c0.825-1.131 2.087-2.481 3.5-2.481 2.488 0 4.5 2.238 4.5 5v9z"></path>
</symbol>
<symbol id="icon-lastfm" viewBox="0 0 32 32">
<path d="M14.113 23.944l-1.175-3.188c0 0-1.906 2.125-4.762 2.125-2.531 0-4.325-2.2-4.325-5.719 0-4.506 2.275-6.119 4.506-6.119 3.225 0 4.25 2.088 5.131 4.763l1.175 3.663c1.175 3.556 3.375 6.412 9.713 6.412 4.544 0 7.625-1.394 7.625-5.056 0-2.969-1.688-4.506-4.837-5.244l-2.344-0.512c-1.613-0.369-2.087-1.025-2.087-2.125 0-1.244 0.988-1.981 2.6-1.981 1.762 0 2.712 0.662 2.856 2.237l3.663-0.438c-0.294-3.3-2.569-4.656-6.306-4.656-3.3 0-6.525 1.244-6.525 5.244 0 2.494 1.212 4.069 4.25 4.8l2.494 0.587c1.869 0.438 2.494 1.212 2.494 2.275 0 1.356-1.319 1.906-3.813 1.906-3.7 0-5.244-1.944-6.119-4.619l-1.212-3.662c-1.531-4.769-3.988-6.525-8.863-6.525-5.388 0-8.25 3.406-8.25 9.2 0 5.569 2.856 8.575 7.994 8.575 4.138 0 6.119-1.944 6.119-1.944v0z"></path>
</symbol>
<symbol id="icon-lastfm2" viewBox="0 0 32 32">
<path d="M29 0h-26c-1.65 0-3 1.35-3 3v26c0 1.65 1.35 3 3 3h26c1.65 0 3-1.35 3-3v-26c0-1.65-1.35-3-3-3zM23.331 23.775c-5.55 0-7.475-2.5-8.5-5.613l-1.025-3.206c-0.769-2.344-1.669-4.169-4.487-4.169-1.956 0-3.944 1.412-3.944 5.356 0 3.081 1.569 5.006 3.787 5.006 2.5 0 4.169-1.863 4.169-1.863l1.025 2.788c0 0-1.731 1.7-5.356 1.7-4.5 0-7-2.625-7-7.5 0-5.069 2.5-8.050 7.219-8.050 4.269 0 6.412 1.537 7.762 5.706l1.056 3.206c0.769 2.344 2.119 4.044 5.356 4.044 2.181 0 3.337-0.481 3.337-1.669 0-0.931-0.544-1.606-2.181-1.988l-2.181-0.512c-2.663-0.644-3.719-2.019-3.719-4.2 0-3.494 2.825-4.588 5.706-4.588 3.269 0 5.262 1.188 5.519 4.075l-3.206 0.387c-0.131-1.381-0.962-1.956-2.5-1.956-1.413 0-2.275 0.644-2.275 1.731 0 0.963 0.419 1.537 1.825 1.863l2.050 0.45c2.756 0.644 4.231 1.988 4.231 4.587 0 3.194-2.694 4.413-6.669 4.413z"></path>
</symbol>
</defs>
</svg>
